<?xml version="1.0" encoding="UTF-8"?>
<svg id="Layer_2" data-name="Layer 2" xmlns="http://www.w3.org/2000/svg" viewBox="0 0 280.53 380.34">
  <defs>
    <style>
      .cls-1 {
        fill: #1a5622;
      }

      .cls-2 {
        fill: #2fb343;
      }

      .cls-3 {
        fill: #185920;
      }

      .cls-4 {
        fill: #30af43;
      }
    </style>
  </defs>
  <g id="Layer_1-2" data-name="Layer 1">
    <path class="cls-2" d="M95.05,181.36c23.58-4.05,40.44,22.43,25.28,41.28-18.12,22.52-53.8,2.33-44.5-24.5,2.58-7.44,11.35-15.42,19.22-16.78Z"/>
    <path class="cls-2" d="M169.05,108.36c31.78-5.44,43.49,35.92,16.54,48.54-20.51,9.6-42.63-11.55-34.76-32.76,2.61-7.05,10.71-14.5,18.22-15.78Z"/>
    <path class="cls-2" d="M44.04,261.43c11.97,12,9.13,33-5.8,41.12-21.76,11.84-46.89-11.66-35.33-34.33,7.64-14.98,29.08-18.86,41.13-6.79Z"/>
    <path class="cls-3" d="M253.05,66.37c10.32-1.84,20.11.78,25.12,10.44,3.3,6.37,3.12,15.05-.4,21.28-10.79,19.13-42.04,10.2-40.47-12.45.55-7.97,7.76-17.84,15.75-19.27Z"/>
    <path class="cls-4" d="M99.05,308.37c16.12-2.79,27.88,15.46,17.71,28.7-12.65,16.47-38.88,1.77-30.95-17.95,2.04-5.06,7.85-9.82,13.24-10.76Z"/>
    <path class="cls-2" d="M100.04,77.43c8.49,8.54,5.92,23.8-5.01,28.91-15.75,7.37-31.53-8.72-24.11-24.11,5.25-10.89,20.69-13.29,29.12-4.8Z"/>
    <path class="cls-3" d="M180.05,34.37c17.18-3.13,25.22,17.95,12.23,27.23-10.93,7.81-25.85-2.07-23.92-14.92.78-5.22,6.38-11.34,11.68-12.3Z"/>
    <path class="cls-3" d="M172.05,255.37c13.13-2.37,19.73,5.7,18.33,18.33-1.21,10.89-18.12,14.07-25.49,6.39-7.34-7.65-3.86-22.73,7.16-24.72Z"/>
    <path class="cls-4" d="M172.03,353.34c22.6-4.8,23.43,30.17.83,26.77-13.57-2.05-14.46-23.87-.83-26.77Z"/>
    <path class="cls-4" d="M18.02,42.33c5.83-1.29,11.55-.51,15.32,4.3,8.88,11.35-2.44,27.01-16.26,21.26-6.84-2.85-9.57-10.89-7.31-17.81.77-2.35,5.84-7.22,8.25-7.75Z"/>
    <path class="cls-1" d="M103.62,19.85c-5.78-5.87-3.19-17.66,5.4-19.51,15.69-3.37,20.59,19.04,5.36,22.35-3.94.86-7.86.11-10.76-2.84Z"/>
    <path class="cls-3" d="M265.07,301.4c4.3,4.66,2.91,14.8-2.79,18.19-13.84,8.22-24.29-13.18-11.31-20.31,3.83-2.11,11.22-1.01,14.11,2.12Z"/>
  </g>
</svg>