<?xml version="1.0" encoding="UTF-8"?>
<svg id="Layer_2" data-name="Layer 2" xmlns="http://www.w3.org/2000/svg" viewBox="0 0 965.53 380.34">
  <defs>
    <style>
      .cls-1 {
        fill: #111;
      }

      .cls-2 {
        fill: #1a5622;
      }

      .cls-3 {
        fill: #2fb343;
      }

      .cls-4 {
        fill: #185920;
      }

      .cls-5 {
        fill: #30af43;
      }
    </style>
  </defs>
  <g id="Layer_1-2" data-name="Layer 1">
    <path class="cls-1" d="M768.05,234.92v-108.49c0-.59,2.8-4.15,3.63-4.75,5.75-4.16,12.64-.69,14.15,5.84l.07,138.37c-.83,7.98-7.88,9.77-14.46,6.51l-87.26-115.04v108.49c0,.25-2.12,4.17-2.37,4.45-4.26,4.77-14.63,2.57-15.42-4.49l-.07-137.32c.66-6.77,7.63-10.9,13.61-7.24l88.1,113.67Z"/>
    <path class="cls-1" d="M408.52,254.84h89.62c.86,0,4.47,3.18,5.19,4.24,4.05,5.93-.13,11.9-6.28,13.55l-108.52-.43c-8.81-4.83-6.13-10.5-1.44-17.28,27.07-39.11,61.39-76.14,89.56-114.84.81-1.12,1.62-2.38,2.09-3.68h-88.57c-.86,0-4.47-3.18-5.2-4.24-3.68-5.41-1.27-12.18,5.23-13.55l109.56.43c9.81,5.93,4.34,12.66-.66,19.37-28.32,38.09-60.64,74.46-88.51,112.75-.81,1.12-1.62,2.38-2.09,3.68Z"/>
    <path class="cls-1" d="M552.12,136.39v49.27h56.08c.57,0,4,1.9,4.78,2.56,3.87,3.27,3.93,8.5,1.04,12.45-.23.32-3.48,2.81-3.72,2.81h-58.18v52.41h80.19c.58,0,3.87,4.05,4.25,5.18,1.78,5.34-.84,10.45-6.38,11.56l-91.69-.48c-2.19-1.86-4.21-4.22-4.22-7.31l.24-139.25c.96-3.15,3.37-5.37,6.65-5.93h89.03c5.83,1.24,8.36,6.16,6.67,11.85-.23.78-4.21,4.89-4.54,4.89h-80.19Z"/>
    <path class="cls-3" d="M95.05,181.36c23.58-4.05,40.44,22.43,25.28,41.28-18.12,22.52-53.8,2.33-44.5-24.5,2.58-7.44,11.35-15.42,19.22-16.78Z"/>
    <path class="cls-3" d="M169.05,108.36c31.78-5.44,43.49,35.92,16.54,48.54-20.51,9.6-42.63-11.55-34.76-32.76,2.61-7.05,10.71-14.5,18.22-15.78Z"/>
    <path class="cls-3" d="M44.04,261.43c11.97,12,9.13,33-5.8,41.12-21.76,11.84-46.89-11.66-35.33-34.33,7.64-14.98,29.08-18.86,41.13-6.79Z"/>
    <path class="cls-4" d="M253.05,66.37c10.32-1.84,20.11.78,25.12,10.44,3.3,6.37,3.12,15.05-.4,21.28-10.79,19.13-42.04,10.2-40.47-12.45.55-7.97,7.76-17.84,15.75-19.27Z"/>
    <path class="cls-5" d="M99.05,308.37c16.12-2.79,27.88,15.46,17.71,28.7-12.65,16.47-38.88,1.77-30.95-17.95,2.04-5.06,7.85-9.82,13.24-10.76Z"/>
    <path class="cls-3" d="M100.04,77.43c8.49,8.54,5.92,23.8-5.01,28.91-15.75,7.37-31.53-8.72-24.11-24.11,5.25-10.89,20.69-13.29,29.12-4.8Z"/>
    <path class="cls-4" d="M180.05,34.37c17.18-3.13,25.22,17.95,12.23,27.23-10.93,7.81-25.85-2.07-23.92-14.92.78-5.22,6.38-11.34,11.68-12.3Z"/>
    <path class="cls-4" d="M172.05,255.37c13.13-2.37,19.73,5.7,18.33,18.33-1.21,10.89-18.12,14.07-25.49,6.39-7.34-7.65-3.86-22.73,7.16-24.72Z"/>
    <path class="cls-5" d="M172.03,353.34c22.6-4.8,23.43,30.17.83,26.77-13.57-2.05-14.46-23.87-.83-26.77Z"/>
    <path class="cls-5" d="M18.02,42.33c5.83-1.29,11.55-.51,15.32,4.3,8.88,11.35-2.44,27.01-16.26,21.26-6.84-2.85-9.57-10.89-7.31-17.81.77-2.35,5.84-7.22,8.25-7.75Z"/>
    <path class="cls-2" d="M103.62,19.85c-5.78-5.87-3.19-17.66,5.4-19.51,15.69-3.37,20.59,19.04,5.36,22.35-3.94.86-7.86.11-10.76-2.84Z"/>
    <path class="cls-4" d="M265.07,301.4c4.3,4.66,2.91,14.8-2.79,18.19-13.84,8.22-24.29-13.18-11.31-20.31,3.83-2.11,11.22-1.01,14.11,2.12Z"/>
    <path class="cls-1" d="M879.96,120.94c-55.47,5.67-85.4,70.63-55.11,117.45,35.45,54.79,120.75,41.72,137.88-21.06,14.42-52.88-28.87-101.9-82.77-96.39ZM842.48,233.34c-27.03-33.1-6.84-89.47,36.43-94.59,32.07-3.8,61.79,14.06,68.13,46.63,11.8,60.55-65.56,95.73-104.57,47.96Z"/>
  </g>
</svg>